<?xml version="1.0" standalone="no"?>
<!DOCTYPE svg PUBLIC "-//W3C//DTD SVG 20010904//EN"
 "http://www.w3.org/TR/2001/REC-SVG-20010904/DTD/svg10.dtd">
<svg version="1.0" xmlns="http://www.w3.org/2000/svg"
 width="512.000000pt" height="512.000000pt" viewBox="0 0 512.000000 512.000000"
 preserveAspectRatio="xMidYMid meet">
<metadata>
Created by potrace 1.16, written by Peter Selinger 2001-2019
</metadata>
<g transform="translate(0.000000,512.000000) scale(0.100000,-0.100000)"
fill="#000000" stroke="none">
<path d="M1620 3934 c-213 -56 -380 -224 -435 -439 -20 -79 -18 -223 4 -305
24 -87 1075 -2832 1109 -2895 15 -27 59 -82 98 -121 78 -79 191 -142 295 -164
83 -18 258 -8 336 20 116 41 229 129 299 235 19 28 131 267 249 530 137 304
226 490 243 507 17 17 203 106 507 243 263 118 502 230 530 249 108 72 194
181 235 299 31 87 39 267 15 357 -38 146 -159 307 -281 372 -70 38 -2857 1103
-2922 1117 -72 15 -215 13 -282 -5z m252 -410 c40 -15 96 -37 123 -49 28 -13
627 -244 1333 -514 706 -270 1294 -499 1307 -508 93 -70 102 -215 17 -296 -15
-15 -229 -116 -497 -237 -258 -116 -494 -225 -523 -243 -75 -44 -170 -149
-213 -232 -31 -59 -370 -815 -416 -927 -55 -132 -232 -157 -328 -47 -23 26
-153 355 -564 1429 -293 767 -535 1408 -538 1425 -12 76 44 171 122 206 54 25
91 24 177 -7z"/>
</g>
</svg>
